<?xml version="1.0" encoding="UTF-8"?>
<svg width="23px" height="23px" viewBox="0 0 23 23" version="1.1" xmlns="http://www.w3.org/2000/svg" xmlns:xlink="http://www.w3.org/1999/xlink">
    <title>Group 19</title>
    <g id="Symbols" stroke="none" stroke-width="1" fill="none" fill-rule="evenodd" stroke-linecap="round">
        <g id="atoms-/-icons-/-blue-/-hide-filters" transform="translate(-7.000000, -7.000000)" stroke="#FEFEFE">
            <g id="Group-19" transform="translate(8.000000, 8.000000)">
                <line x1="7" y1="18.9" x2="21" y2="18.9" id="Stroke-1"></line>
                <line x1="0" y1="18.9" x2="2.8" y2="18.9" id="Stroke-3"></line>
                <line x1="19.6" y1="10.5" x2="21" y2="10.5" id="Stroke-5"></line>
                <line x1="0" y1="10.5" x2="14" y2="10.5" id="Stroke-7"></line>
                <path d="M4.9,16.8 C6.05964252,16.8 7,17.7403575 7,18.9 C7,20.0596425 6.05964252,21 4.9,21 C3.74035748,21 2.8,20.0596425 2.8,18.9 C2.8,17.7403575 3.74035748,16.8 4.9,16.8 Z" id="Stroke-9"></path>
                <path d="M17.5,8.4 C18.6606303,8.4 19.6,9.34035748 19.6,10.5 C19.6,11.6596425 18.6606303,12.6 17.5,12.6 C16.3403575,12.6 15.4,11.6596425 15.4,10.5 C15.4,9.34035748 16.3403575,8.4 17.5,8.4 Z" id="Stroke-11"></path>
                <line x1="11.2" y1="2.1" x2="21" y2="2.1" id="Stroke-13"></line>
                <line x1="0" y1="2.1" x2="7" y2="2.1" id="Stroke-15"></line>
                <path d="M9.1,0 C10.2606303,0 11.2,0.940357479 11.2,2.1 C11.2,3.25964252 10.2606303,4.2 9.1,4.2 C7.94035748,4.2 7,3.25964252 7,2.1 C7,0.940357479 7.94035748,0 9.1,0 Z" id="Stroke-17"></path>
            </g>
        </g>
    </g>
</svg>